<?xml version="1.0" standalone="no"?>
<!DOCTYPE svg PUBLIC "-//W3C//DTD SVG 20010904//EN"
 "http://www.w3.org/TR/2001/REC-SVG-20010904/DTD/svg10.dtd">
<svg version="1.0" xmlns="http://www.w3.org/2000/svg"
 width="520.000000pt" height="520.000000pt" viewBox="0 0 520.000000 520.000000"
 preserveAspectRatio="xMidYMid meet">
<metadata>
Created by potrace 1.16, written by Peter Selinger 2001-2019
</metadata>
<g transform="translate(0.000000,520.000000) scale(0.100000,-0.100000)"
fill="#000000" stroke="none">
<path d="M1945 3900 c-680 -6 -642 -2 -703 -76 -90 -109 -49 -271 83 -330 11
-5 254 -11 540 -14 l520 -5 0 -345 0 -345 -100 -17 c-54 -9 -147 -32 -205 -50
-88 -27 -112 -39 -146 -74 -50 -49 -68 -98 -62 -170 6 -67 42 -124 103 -159
59 -35 125 -36 234 -1 46 14 104 27 130 29 l46 2 3 -77 3 -77 -74 -35 c-276
-131 -274 -465 5 -669 l68 -49 0 -197 c0 -221 7 -250 73 -308 79 -69 195 -69
274 0 63 55 73 91 73 264 0 140 2 153 19 163 11 5 31 10 44 10 38 0 174 37
267 73 139 53 197 128 188 243 -6 67 -42 124 -103 159 -65 39 -126 37 -247 -9
-53 -19 -111 -37 -130 -38 -33 -3 -33 -3 -36 89 -3 90 -2 94 37 171 51 102 71
180 71 280 0 98 -23 179 -74 254 l-36 55 2 414 3 414 520 5 c286 3 529 9 540
14 131 59 172 222 83 330 -64 78 -26 74 -754 78 -357 2 -923 1 -1259 -2z"/>
</g>
</svg>
